<svg width="48" height="48" viewBox="0 0 48 48" fill="none" xmlns="http://www.w3.org/2000/svg">
<path d="M40.2438 9.09307C42.1714 11.2562 42.2977 14.8513 40.6617 19.0923C39.0377 23.3019 35.7289 27.9817 31.101 32.106C26.473 36.2303 21.4444 38.9804 17.0763 40.1107C12.6757 41.2494 9.11876 40.7116 7.19109 38.5485C5.26341 36.3854 5.13717 32.7903 6.7732 28.5493C8.39714 24.3397 11.7059 19.6598 16.3339 15.5355C20.9619 11.4113 25.9904 8.66118 30.3585 7.53087C34.7592 6.39214 38.3161 6.92998 40.2438 9.09307Z" stroke="#7580EA" stroke-width="1.14394"/>
<path fill-rule="evenodd" clip-rule="evenodd" d="M36.5745 25.9428V14.8209C36.5745 13.4935 35.7211 12.3654 34.5331 11.9553C34.5336 11.9804 34.5339 12.0056 34.5339 12.0309V28.3569C35.261 27.561 35.942 26.7543 36.5745 25.9428ZM33.6764 29.268C32.9385 30.0296 32.158 30.7789 31.3373 31.5103C29.3654 33.2676 27.318 34.7818 25.2742 36.0324L14.4665 36.0324L13.484 36.0324C11.8101 36.0324 10.4531 34.6754 10.4531 33.0015V26.8578V12.0309C10.4531 11.2986 10.7129 10.6269 11.1452 10.103C11.3715 9.82885 11.6449 9.59518 11.9532 9.41443C12.4025 9.15101 12.9256 9 13.484 9H30.6455C32.2392 9 33.5456 10.23 33.6672 11.7925L33.6676 11.7977C33.6734 11.8747 33.6764 11.9524 33.6764 12.0309V26.8578V29.268ZM23.7994 36.8898C22.3942 37.664 20.9998 38.3105 19.6423 38.8225H17.4879C16.2014 38.8225 15.102 38.0208 14.6621 36.8898H23.7994ZM22.342 14.4646C22.4962 18.9403 25.9447 22.5314 30.2426 22.6921C25.9447 22.8527 22.4962 26.4439 22.342 30.9195C22.1877 26.4439 18.7392 22.8527 14.4414 22.6921C18.7392 22.5314 22.1877 18.9403 22.342 14.4646Z" fill="#7580EA"/>
</svg>
