<svg width="771" height="749" viewBox="0 0 771 749" fill="none" xmlns="http://www.w3.org/2000/svg">
<rect x="240.244" y="184.499" width="344.804" height="421.428" rx="47.251" fill="#7580EA"/>
<rect x="171.168" y="134.315" width="375.412" height="434.795" rx="53.9345" fill="#7580EA" stroke="white" stroke-width="13.367"/>
<path d="M178.171 188.249C178.171 162.329 199.183 141.317 225.103 141.317H492.645C518.565 141.317 539.577 162.329 539.577 188.249V419.076H178.171V188.249Z" fill="#7580EA" stroke="#7580EA" stroke-width="0.638527"/>
<path d="M358.016 224.505C360.493 293.758 415.861 349.324 484.866 351.809C415.861 354.295 360.493 409.861 358.016 479.114C355.539 409.861 300.171 354.295 231.166 351.809C300.171 349.324 355.539 293.758 358.016 224.505Z" fill="white"/>
<path d="M642.979 141.754C673.031 175.476 674.999 231.524 649.493 297.639C624.177 363.265 572.594 436.224 500.445 500.52C428.296 564.817 349.902 607.69 281.805 625.311C213.2 643.063 157.749 634.679 127.697 600.957C97.6448 567.235 95.6767 511.187 121.182 445.072C146.499 379.446 198.082 306.487 270.23 242.191C342.379 177.894 420.773 135.021 488.87 117.4C557.475 99.6478 612.927 108.032 642.979 141.754Z" stroke="#7580EA" stroke-width="17.8337"/>
<path fill-rule="evenodd" clip-rule="evenodd" d="M669.799 123.991L751.84 189.598L699.081 677.218L259.224 748.306L153.237 640.554L159.782 634.009C241.696 664.542 382.169 615.499 504.111 506.829C646.296 380.119 710.838 219.079 652.303 141.487L669.799 123.991Z" fill="white"/>
</svg>
